<svg xmlns="http://www.w3.org/2000/svg" width="215.998" height="562.315" viewBox="0 0 161.998 421.736"><g stroke-width="2" stroke-linecap="round" stroke-linejoin="round" stroke="#000"><path d="M138.578125 71.5497C141.864583 71.606991 145.526042 68.39345 146.833333 64.554908 152.994792 46.419491 145.229167 28.627825 138.578125 25.284075 131.932292 28.940325 124.161458 46.7372 130.328125 64.867408 131.630208 68.70595 135.296875 71.606991 138.578125 71.5497M167.239583 24.231991C172.9375 29.466366 173.953125 37.940325 172.682292 45.200741 170.666667 57.320533 166.546875 68.856991 168.1875 81.872616 169.317708 87.461158 171.78125 94.304908 177.151042 97.070533 182.182292 98.5497 185.765625 94.716366 187.859375 88.638241 190.921875 79.669491 190.494792 70.002825 189.776042 60.695533 188.119792 47.39345 182.401042 35.028866 175.807292 23.513241 174.546875 20.961158 172.119792 17.851783 168.895833 18.695533 166.697917 19.310116 165.463542 22.554908 167.239583 24.231991" transform="matrix(.75 0 0 .75 -38.25 4.228)" fill="none"/><path d="M84 6.3622C78.276042 37.76845 72.557292 60.606991 75.416667 86.2997 76.072917 92.7997 80.119792 103.528866 84 103.429908 88.182292 103.325741 91.807292 93.247616 92.583333 86.2997 95.442708 60.606991 89.723958 37.76845 84 6.3622M84 154.919491C95.583333 154.919491 105 145.502825 105 133.919491 105 122.341366 95.583333 112.919491 84 112.919491 72.416667 112.919491 63 122.341366 63 133.919491 63 145.502825 72.416667 154.919491 84 154.919491M138.578125 124.3622C150.161458 124.3622 159.578125 114.940325 159.578125 103.3622 159.578125 91.778866 150.161458 82.3622 138.578125 82.3622 127 82.3622 117.578125 91.778866 117.578125 103.3622 117.578125 114.940325 127 124.3622 138.578125 124.3622" transform="matrix(.75 0 0 .75 -38.25 4.228)"/><path d="M138.578125 185.471575C150.161458 185.471575 159.578125 176.0497 159.578125 164.471575 159.578125 152.888241 150.161458 143.471575 138.578125 143.471575 127 143.471575 117.578125 152.888241 117.578125 164.471575 117.578125 176.0497 127 185.471575 138.578125 185.471575M145.640625 197.539283C149.932292 203.20595 192.963542 190.2997 190.822917 185.700741 183.734375 184.231991 142.140625 191.711158 145.640625 197.539283M138.578125 245.471575C150.161458 245.471575 159.578125 236.0497 159.578125 224.471575 159.578125 212.888241 150.161458 203.471575 138.578125 203.471575 127 203.471575 117.578125 212.888241 117.578125 224.471575 117.578125 236.0497 127 245.471575 138.578125 245.471575M203.380208 359.919491C204.317708 357.742408 204.046875 355.039283 205.140625 352.669491 206.057292 350.872616 209.578125 348.794491 211.744792 345.1747 216.911458 336.534075 217.208333 327.252825 216.09375 318.653866 214.84375 309.008033 209.109375 298.721575 203.53125 298.752825 201.510417 298.76845 200.057292 299.429908 199.03125 301.752825 198.005208 304.08095 197.442708 307.336158 197.114583 311.002825 196.447917 318.33095 196.713542 327.351783 196.713542 333.606991 196.713542 333.606991 196.630208 359.966366 196.630208 359.966366 197.927083 359.945533 203.869792 360.195533 203.380208 359.919491M194.817708 290.528866C203.953125 298.179908 231.625 291.653866 229.447917 281.825741 224.84375 269.633033 195.291667 278.742408 194.817708 290.528866M185 359.997616C184.713542 359.945533 184.494792 346.554908 184.494792 345.966366 184.494792 343.023658 182.151042 341.659075 181.239583 339.856991 180.322917 338.060116 178.802083 335.981991 176.635417 332.3622 171.46875 323.721575 171.171875 314.445533 172.286458 305.841366 173.536458 296.195533 179.270833 285.909075 184.848958 285.945533 186.869792 285.95595 188.322917 286.617408 189.348958 288.940325 190.375 291.26845 190.9375 294.523658 191.265625 298.190325 191.932292 305.51845 191.666667 314.539283 191.666667 320.794491 191.666667 320.794491 191.75 360.0497 191.75 360.0497 191.75 360.0497 185 360.002825 185 360.002825 185 360.002825 185 359.997616 185 359.997616M147.729167 254.778866C162.880208 258.851783 173.901042 262.929908 186.296875 260.89345 189.427083 260.4247 194.609375 257.539283 194.557292 254.778866 194.505208 251.7997 189.645833 249.221575 186.296875 248.669491 173.901042 246.633033 162.880208 250.70595 147.729167 254.778866M157.229167 268.221575C157.229167 268.221575 119.916667 268.221575 119.916667 268.221575M103.0625 243.638241C103.0625 247.252825 97.838542 250.159075 91.359375 250.159075 84.875 250.159075 79.65625 247.252825 79.65625 243.638241 79.65625 240.028866 84.875 237.117408 91.359375 237.117408 97.838542 237.117408 103.0625 240.028866 103.0625 243.638241M103.0625 260.26845C103.0625 263.883033 97.838542 266.789283 91.359375 266.789283 84.875 266.789283 79.65625 263.883033 79.65625 260.26845 79.65625 256.659075 84.875 253.747616 91.359375 253.747616 97.838542 253.747616 103.0625 256.659075 103.0625 260.26845M104.6875 276.888241C104.6875 280.502825 98.744792 283.409075 91.354167 283.409075 83.96875 283.409075 78.020833 280.502825 78.020833 276.888241 78.020833 273.278866 83.96875 270.367408 91.354167 270.367408 98.744792 270.367408 104.6875 273.278866 104.6875 276.888241M104.6875 293.51845C104.6875 297.133033 98.744792 300.039283 91.354167 300.039283 83.96875 300.039283 78.020833 297.133033 78.020833 293.51845 78.020833 289.909075 83.96875 286.997616 91.354167 286.997616 98.744792 286.997616 104.6875 289.909075 104.6875 293.51845M138.578125 332.961158C150.161458 332.961158 159.578125 323.539283 159.578125 311.961158 159.578125 300.377825 150.161458 290.961158 138.578125 290.961158 127 290.961158 117.578125 300.377825 117.578125 311.961158 117.578125 323.539283 127 332.961158 138.578125 332.961158M138.578125 394.08095C150.161458 394.08095 159.578125 384.659075 159.578125 373.08095 159.578125 361.497616 150.161458 352.08095 138.578125 352.08095 127 352.08095 117.578125 361.497616 117.578125 373.08095 117.578125 384.659075 127 394.08095 138.578125 394.08095M137.03125 405.3622C132.739583 411.023658 89.708333 398.122616 91.84375 393.51845 98.9375 392.054908 140.53125 399.528866 137.03125 405.3622M138.578125 453.471575C150.161458 453.471575 159.578125 444.0497 159.578125 432.471575 159.578125 420.888241 150.161458 411.471575 138.578125 411.471575 127 411.471575 117.578125 420.888241 117.578125 432.471575 117.578125 444.0497 127 453.471575 138.578125 453.471575M91.067708 458.26845C83.463542 458.185116 77.776042 460.1747 77.432292 465.153866 74.354167 480.966366 115.067708 489.461158 128.640625 483.502825 115.484375 480.45595 103.682292 473.935116 105.390625 465.153866 105.515625 463.3622 106.338542 461.95595 107.6875 460.898658 101.963542 459.294491 96.098958 458.325741 91.067708 458.26845M91.067708 487.898658C83.463542 487.815325 77.776042 489.804908 77.432292 494.784075 74.354167 510.596575 115.067708 519.096575 128.640625 513.133033 115.484375 510.086158 103.682292 503.565325 105.390625 494.784075 105.515625 492.992408 106.338542 491.586158 107.6875 490.528866 101.963542 488.9247 96.098958 487.95595 91.067708 487.898658" transform="matrix(.75 0 0 .75 -38.25 4.228)" fill="none"/><path d="M 160.838542 479.1122 C 158.338542 492.1747 101.786458 483.685116 105.390625 465.153866 C 106.5 449.211158 162.260417 463.9247 160.838542 479.1122" transform="matrix(.75 0 0 .75 -38.25 4.228)" fill="none"/><path d="M 160.838542 508.742408 C 158.338542 521.804908 101.786458 513.315325 105.390625 494.784075 C 106.5 478.841366 162.260417 493.554908 160.838542 508.742408" transform="matrix(.75 0 0 .75 -38.25 4.228)" fill="none"/></g></svg>