<?xml version="1.0" encoding="UTF-8" standalone="no"?>
<svg width="293px" height="306px" viewBox="0 0 293 306"
 xmlns="http://www.w3.org/2000/svg" xmlns:xlink="http://www.w3.org/1999/xlink" version="1.2" baseProfile="tiny">
<title>Senza titolo-2</title>
<desc>Generated by MuseScore 3.2.3</desc>
<polyline class="" fill="none" stroke="#000000" stroke-width="2.00" stroke-linejoin="bevel" points="17.2877,86.8169 332.78,86.8169"/>
<polyline class="" fill="none" stroke="#000000" stroke-width="2.00" stroke-linejoin="bevel" points="17.2877,111.817 332.78,111.817"/>
<polyline class="" fill="none" stroke="#000000" stroke-width="2.00" stroke-linejoin="bevel" points="17.2877,136.817 332.78,136.817"/>
<polyline class="" fill="none" stroke="#000000" stroke-width="2.00" stroke-linejoin="bevel" points="17.2877,161.817 332.78,161.817"/>
<polyline class="" fill="none" stroke="#000000" stroke-width="2.00" stroke-linejoin="bevel" points="17.2877,186.817 332.78,186.817"/>
<path class="" d="M185.467,227.348 C186.905,226.952 187.624,227.307 187.624,228.411 L187.624,236.223 C187.624,237.005 187.004,237.624 185.764,238.083 L182.546,239.348 L182.546,253.52 L185.467,252.348 C186.905,251.952 187.624,252.312 187.624,253.426 L187.624,261.239 C187.624,262.02 187.004,262.635 185.764,263.083 L182.546,264.364 L182.546,280.567 C182.546,281.807 182.056,282.426 181.077,282.426 C180.098,282.426 179.608,281.807 179.608,280.567 L179.608,265.536 L170.327,269.239 L170.327,285.348 C170.327,286.588 169.84,287.208 168.866,287.208 C167.892,287.208 167.405,286.588 167.405,285.348 L167.405,270.411 L164.858,271.489 C163.494,272.072 162.811,271.682 162.811,270.317 L162.811,262.598 C162.811,261.952 163.4,261.369 164.577,260.848 L167.405,259.676 L167.405,245.411 L164.858,246.489 C163.494,247.072 162.811,246.682 162.811,245.317 L162.811,237.598 C162.811,236.942 163.4,236.353 164.577,235.833 L167.405,234.661 L167.405,218.551 C167.405,217.312 167.892,216.692 168.866,216.692 C169.84,216.692 170.327,217.312 170.327,218.551 L170.327,233.489 L179.608,229.692 L179.608,213.77 C179.608,212.531 180.098,211.911 181.077,211.911 C182.056,211.911 182.546,212.531 182.546,213.77 L182.546,228.52 L185.467,227.348 M170.327,244.239 L170.327,258.505 L179.608,254.692 L179.608,240.52 L170.327,244.239 "/>
<polyline class="" fill="none" stroke="#000000" stroke-width="4.00" stroke-linecap="square" stroke-linejoin="bevel" points="190.389,236.817 238.303,236.817"/>
<polyline class="" fill="none" stroke="#000000" stroke-width="4.00" stroke-linecap="square" stroke-linejoin="bevel" points="190.389,211.817 238.303,211.817"/>
<polyline class="" fill="none" stroke="#000000" stroke-width="3.25" stroke-linecap="round" stroke-linejoin="bevel" points="229.178,244.622 229.178,136.817"/>
<path class="" d="M219.858,235.551 C222.983,235.551 225.587,236.333 227.671,237.895 C229.754,239.458 230.796,241.702 230.796,244.63 C230.796,249.119 228.47,253.317 223.819,257.223 C219.168,261.13 214.171,263.083 208.827,263.083 C205.702,263.083 203.066,262.27 200.921,260.645 C198.9,258.885 197.889,256.671 197.889,254.005 C197.889,249.64 200.202,245.473 204.827,241.505 C209.452,237.536 214.462,235.551 219.858,235.551"/>
<path class="" d="M79.1783,193.942 L79.1783,191.801 C79.1158,190.697 78.9544,188.973 78.6939,186.629 C75.4439,187.15 72.5481,187.411 70.0064,187.411 C60.8919,187.411 53.1601,183.812 46.8111,176.614 C40.4622,169.416 37.2877,160.838 37.2877,150.879 C37.2877,148.213 37.8085,145.007 38.8502,141.262 C39.8919,137.517 40.8528,135.01 41.733,133.739 C42.6132,132.468 43.9335,130.239 45.6939,127.051 C46.2148,126.072 47.9075,123.921 50.7721,120.598 C51.2929,119.89 51.7486,119.307 52.1393,118.848 C52.5299,118.39 53.1627,117.575 54.0377,116.403 C54.9127,115.231 55.8554,114.14 56.8658,113.129 C57.8762,112.119 58.7721,111.142 59.5533,110.2 C60.3346,109.257 61.0533,108.463 61.7096,107.817 C59.3658,100.067 57.9335,94.1086 57.4127,89.942 C56.8919,85.7753 56.6314,80.6633 56.6314,74.606 C56.6314,68.5487 57.9335,63.0461 60.5377,58.0982 C63.0689,52.9628 66.6158,48.7649 71.1783,45.5045 C71.4387,45.3066 71.7799,45.2076 72.2018,45.2076 C72.6236,45.2076 72.9335,45.3066 73.1314,45.5045 C76.6419,49.7336 79.6835,55.2336 82.2564,62.0045 C84.8294,68.7753 86.1158,75.1086 86.1158,81.0045 C86.1158,86.9003 84.621,92.5826 81.6314,98.0514 C78.246,103.843 73.8814,109.833 68.5377,116.02 C69.9023,120.312 71.7252,127.046 74.0064,136.223 L74.6002,136.223 C74.8606,136.161 75.0846,136.129 75.2721,136.129 C82.6367,136.129 88.6445,138.718 93.2955,143.895 C97.9465,149.072 100.272,155.046 100.272,161.817 C100.272,170.213 96.7929,176.984 89.8346,182.129 C87.8137,183.629 85.4335,184.801 82.6939,185.645 C83.0273,189.874 83.1939,192.689 83.1939,194.09 C83.1939,195.491 83.1262,197.984 82.9908,201.567 C82.9283,207.682 80.845,212.921 76.7408,217.286 C72.6367,221.65 67.9492,223.833 62.6783,223.833 C57.4075,223.833 52.9153,221.96 49.2018,218.215 C45.4882,214.471 43.6314,209.932 43.6314,204.598 C43.6314,201.796 44.7096,199.416 46.8658,197.458 C49.0742,195.51 51.5611,194.536 54.3268,194.536 C57.0924,194.536 59.3554,195.546 61.1158,197.567 C62.9387,199.452 63.8502,201.728 63.8502,204.395 C63.8502,207.062 62.9387,209.307 61.1158,211.129 C59.2929,212.952 57.1106,213.864 54.5689,213.864 C53.5273,213.864 52.5221,213.671 51.5533,213.286 C54.4179,217.515 58.095,219.629 62.5846,219.629 C67.0742,219.629 70.9153,217.775 74.108,214.067 C77.3007,210.359 78.8971,205.994 78.8971,200.973 L79.1783,193.942 M82.3033,181.645 C85.6887,180.406 88.3762,178.208 90.3658,175.051 C92.3554,171.895 93.3502,168.754 93.3502,165.629 C93.3502,161.004 91.7538,156.869 88.5611,153.223 C85.3684,149.577 81.3294,147.525 76.4439,147.067 C79.246,160.807 81.1992,172.333 82.3033,181.645 M44.5221,159.083 C44.5221,165.531 47.0924,171.163 52.233,175.981 C57.3736,180.799 63.3971,183.208 70.3033,183.208 C73.0325,183.208 75.6992,183.01 78.3033,182.614 C77.2617,172.718 75.2096,160.869 72.1471,147.067 C68.3137,147.463 65.3372,148.783 63.2174,151.028 C61.0976,153.273 60.0377,155.827 60.0377,158.692 C60.0377,163.64 62.6783,167.645 67.9596,170.708 C68.4075,170.968 68.6314,171.408 68.6314,172.028 C68.6314,172.648 68.4205,173.184 67.9986,173.637 C67.5768,174.09 67.2044,174.317 66.8814,174.317 C66.5585,174.317 66.1367,174.254 65.6158,174.129 C57.9908,169.963 54.1783,163.676 54.1783,155.27 C54.1783,151.301 55.5794,147.494 58.3814,143.848 C61.3085,140.202 65.1158,137.859 69.8033,136.817 C67.9804,129.525 66.4856,123.827 65.3189,119.723 C56.4023,129.754 50.8658,137.176 48.7096,141.989 C45.9179,148.239 44.5221,153.937 44.5221,159.083 M77.1314,59.7701 C72.246,62.1764 68.3893,65.6581 65.5611,70.2154 C62.733,74.7727 61.3189,79.5566 61.3189,84.567 C61.3189,89.5774 62.4908,96.0566 64.8346,104.004 C69.5221,98.3378 73.0689,93.0305 75.4752,88.0826 C77.8814,83.1347 79.0846,78.2362 79.0846,73.3873 C79.0846,68.5383 78.4335,63.9993 77.1314,59.7701"/>
</svg>
