<?xml version="1.0" encoding="UTF-8" standalone="no"?>
<svg width="293px" height="306px" viewBox="0 0 293 306"
 xmlns="http://www.w3.org/2000/svg" xmlns:xlink="http://www.w3.org/1999/xlink" version="1.2" baseProfile="tiny">
<title>Senza titolo-2</title>
<desc>Generated by MuseScore 3.2.3</desc>
<polyline class="" fill="none" stroke="#000000" stroke-width="2.00" stroke-linejoin="bevel" points="17.2877,86.8169 330.855,86.8169"/>
<polyline class="" fill="none" stroke="#000000" stroke-width="2.00" stroke-linejoin="bevel" points="17.2877,111.817 330.855,111.817"/>
<polyline class="" fill="none" stroke="#000000" stroke-width="2.00" stroke-linejoin="bevel" points="17.2877,136.817 330.855,136.817"/>
<polyline class="" fill="none" stroke="#000000" stroke-width="2.00" stroke-linejoin="bevel" points="17.2877,161.817 330.855,161.817"/>
<polyline class="" fill="none" stroke="#000000" stroke-width="2.00" stroke-linejoin="bevel" points="17.2877,186.817 330.855,186.817"/>
<path class="" d="M164.178,79.395 L162.913,17.2857 C162.913,16.3065 163.678,15.8169 165.21,15.8169 C166.741,15.8169 167.507,16.3065 167.507,17.2857 L166.725,51.1763 C168.486,49.4159 169.999,48.1945 171.264,47.5122 C172.53,46.8299 174.254,46.4888 176.436,46.4888 C178.619,46.4888 180.637,47.4966 182.491,49.5122 C184.345,51.5279 185.272,54.0357 185.272,57.0357 C185.272,61.5252 180.553,67.744 171.116,75.6919 C167.605,78.8794 165.783,80.4732 165.647,80.4732 L165.069,80.4732 C164.475,80.4732 164.178,80.1138 164.178,79.395 M166.632,54.3013 L166.335,76.4732 C168.355,74.5773 170.408,71.4315 172.491,67.0357 C174.574,62.6398 175.616,58.8794 175.616,55.7544 C175.616,54.1919 175.355,52.7596 174.835,51.4575 C174.314,50.1555 173.499,49.5044 172.389,49.5044 C171.28,49.5044 170.285,49.895 169.405,50.6763 C168.525,51.4575 167.6,52.6659 166.632,54.3013"/>
<polyline class="" fill="none" stroke="#000000" stroke-width="4.00" stroke-linecap="square" stroke-linejoin="bevel" points="188.303,61.8169 236.218,61.8169"/>
<polyline class="" fill="none" stroke="#000000" stroke-width="3.25" stroke-linecap="round" stroke-linejoin="bevel" points="197.428,66.5123 197.428,149.317"/>
<path class="" d="M217.772,48.0513 C220.897,48.0513 223.501,48.8325 225.585,50.395 C227.668,51.9575 228.71,54.2023 228.71,57.1294 C228.71,61.619 226.384,65.8169 221.733,69.7232 C217.082,73.6294 212.085,75.5825 206.741,75.5825 C203.616,75.5825 200.981,74.77 198.835,73.145 C196.814,71.3846 195.803,69.1711 195.803,66.5044 C195.803,62.1398 198.116,57.9732 202.741,54.0044 C207.366,50.0357 212.376,48.0513 217.772,48.0513"/>
<path class="" d="M79.1783,193.942 L79.1783,191.801 C79.1158,190.697 78.9544,188.973 78.6939,186.629 C75.4439,187.15 72.5481,187.411 70.0064,187.411 C60.8919,187.411 53.1601,183.812 46.8111,176.614 C40.4622,169.416 37.2877,160.838 37.2877,150.879 C37.2877,148.213 37.8085,145.007 38.8502,141.262 C39.8919,137.517 40.8528,135.01 41.733,133.739 C42.6132,132.468 43.9335,130.239 45.6939,127.051 C46.2148,126.072 47.9075,123.921 50.7721,120.598 C51.2929,119.89 51.7486,119.307 52.1393,118.848 C52.5299,118.39 53.1627,117.575 54.0377,116.403 C54.9127,115.231 55.8554,114.14 56.8658,113.129 C57.8762,112.119 58.7721,111.142 59.5533,110.2 C60.3346,109.257 61.0533,108.463 61.7096,107.817 C59.3658,100.067 57.9335,94.1086 57.4127,89.942 C56.8919,85.7753 56.6314,80.6633 56.6314,74.606 C56.6314,68.5487 57.9335,63.0461 60.5377,58.0982 C63.0689,52.9628 66.6158,48.7649 71.1783,45.5045 C71.4387,45.3066 71.7799,45.2076 72.2018,45.2076 C72.6236,45.2076 72.9335,45.3066 73.1314,45.5045 C76.6419,49.7336 79.6835,55.2336 82.2564,62.0045 C84.8294,68.7753 86.1158,75.1086 86.1158,81.0045 C86.1158,86.9003 84.621,92.5826 81.6314,98.0514 C78.246,103.843 73.8814,109.833 68.5377,116.02 C69.9023,120.312 71.7252,127.046 74.0064,136.223 L74.6002,136.223 C74.8606,136.161 75.0846,136.129 75.2721,136.129 C82.6367,136.129 88.6445,138.718 93.2955,143.895 C97.9465,149.072 100.272,155.046 100.272,161.817 C100.272,170.213 96.7929,176.984 89.8346,182.129 C87.8137,183.629 85.4335,184.801 82.6939,185.645 C83.0273,189.874 83.1939,192.689 83.1939,194.09 C83.1939,195.491 83.1262,197.984 82.9908,201.567 C82.9283,207.682 80.845,212.921 76.7408,217.286 C72.6367,221.65 67.9492,223.833 62.6783,223.833 C57.4075,223.833 52.9153,221.96 49.2018,218.215 C45.4882,214.471 43.6314,209.932 43.6314,204.598 C43.6314,201.796 44.7096,199.416 46.8658,197.458 C49.0742,195.51 51.5611,194.536 54.3268,194.536 C57.0924,194.536 59.3554,195.546 61.1158,197.567 C62.9387,199.452 63.8502,201.728 63.8502,204.395 C63.8502,207.062 62.9387,209.307 61.1158,211.129 C59.2929,212.952 57.1106,213.864 54.5689,213.864 C53.5273,213.864 52.5221,213.671 51.5533,213.286 C54.4179,217.515 58.095,219.629 62.5846,219.629 C67.0742,219.629 70.9153,217.775 74.108,214.067 C77.3007,210.359 78.8971,205.994 78.8971,200.973 L79.1783,193.942 M82.3033,181.645 C85.6887,180.406 88.3762,178.208 90.3658,175.051 C92.3554,171.895 93.3502,168.754 93.3502,165.629 C93.3502,161.004 91.7538,156.869 88.5611,153.223 C85.3684,149.577 81.3294,147.525 76.4439,147.067 C79.246,160.807 81.1992,172.333 82.3033,181.645 M44.5221,159.083 C44.5221,165.531 47.0924,171.163 52.233,175.981 C57.3736,180.799 63.3971,183.208 70.3033,183.208 C73.0325,183.208 75.6992,183.01 78.3033,182.614 C77.2617,172.718 75.2096,160.869 72.1471,147.067 C68.3137,147.463 65.3372,148.783 63.2174,151.028 C61.0976,153.273 60.0377,155.827 60.0377,158.692 C60.0377,163.64 62.6783,167.645 67.9596,170.708 C68.4075,170.968 68.6314,171.408 68.6314,172.028 C68.6314,172.648 68.4205,173.184 67.9986,173.637 C67.5768,174.09 67.2044,174.317 66.8814,174.317 C66.5585,174.317 66.1367,174.254 65.6158,174.129 C57.9908,169.963 54.1783,163.676 54.1783,155.27 C54.1783,151.301 55.5794,147.494 58.3814,143.848 C61.3085,140.202 65.1158,137.859 69.8033,136.817 C67.9804,129.525 66.4856,123.827 65.3189,119.723 C56.4023,129.754 50.8658,137.176 48.7096,141.989 C45.9179,148.239 44.5221,153.937 44.5221,159.083 M77.1314,59.7701 C72.246,62.1764 68.3893,65.6581 65.5611,70.2154 C62.733,74.7727 61.3189,79.5566 61.3189,84.567 C61.3189,89.5774 62.4908,96.0566 64.8346,104.004 C69.5221,98.3378 73.0689,93.0305 75.4752,88.0826 C77.8814,83.1347 79.0846,78.2362 79.0846,73.3873 C79.0846,68.5383 78.4335,63.9993 77.1314,59.7701"/>
</svg>
